<svg width="34" height="34" viewBox="0 0 34 34" fill="none" xmlns="http://www.w3.org/2000/svg">
<rect width="34" height="34" rx="17" fill="black"/>
<path opacity="0.52" fill-rule="evenodd" clip-rule="evenodd" d="M22.3907 21.5209L16.6881 18.2285L12.6379 20.5669L13.7207 22.2935L16.6882 20.5802L20.3541 22.6967V26.9298L16.6882 29.0463L13.0222 26.9298V25.8519L10.9856 24.746V28.1056L16.6881 31.398L22.3907 28.1056V21.5209Z" fill="url(#paint0_linear_2393_6540)"/>
<path opacity="0.52" fill-rule="evenodd" clip-rule="evenodd" d="M15.3358 15.8771V9.29237L15.1002 9.15636L13.2991 12.5182V14.7011L11.6059 15.6787L11.397 16.0686C11.1256 16.5752 10.5766 16.6961 10.1413 16.5243L9.63321 16.8176L5.96729 14.7011V10.4681L9.63321 8.35154L10.3248 8.75081L12.3249 7.55402L9.63322 6L3.93066 9.29237L3.93066 15.8771L9.63322 19.1695L15.3358 15.8771Z" fill="url(#paint1_linear_2393_6540)"/>
<path opacity="0.52" fill-rule="evenodd" clip-rule="evenodd" d="M27.0358 17.5402L29.9163 15.8771V9.29237L24.2138 6L18.5112 9.29237L18.5112 15.8771L24.0537 19.077C24.0343 18.9436 24.0328 18.8042 24.0517 18.6609L24.3013 16.7673L24.2138 16.8179L20.5478 14.7013L20.5478 10.4683L24.2138 8.35176L27.8797 10.4683V14.7013L27.0358 15.1885V17.5402Z" fill="url(#paint2_linear_2393_6540)"/>
<path fill-rule="evenodd" clip-rule="evenodd" d="M14.9233 7.6254C16.1609 6.91087 17.6857 6.91087 18.9233 7.6254L23.6808 10.3721C24.9184 11.0867 25.6808 12.4072 25.6808 13.8362V19.3297C25.6808 20.7588 24.9184 22.0793 23.6808 22.7938L18.9233 25.5406C17.6857 26.2551 16.1609 26.2551 14.9233 25.5406L10.1658 22.7938C8.92822 22.0793 8.16582 20.7588 8.16582 19.3297V13.8362C8.16582 12.4072 8.92822 11.0867 10.1658 10.3721L14.9233 7.6254Z" fill="url(#paint3_linear_2393_6540)"/>
<path fill-rule="evenodd" clip-rule="evenodd" d="M16.9488 16.5871C17.0682 16.3287 16.9739 16.0218 16.73 15.8749L13.7276 14.0675C13.4522 13.9017 13.0941 14.0005 12.9425 14.284C12.8014 14.5481 12.8923 14.8766 13.1492 15.0305L16.1553 16.8318C16.44 17.0024 16.8097 16.8884 16.9488 16.5871Z" fill="white"/>
<path fill-rule="evenodd" clip-rule="evenodd" d="M16.6884 20.999C16.9481 20.999 17.1587 20.7884 17.1587 20.5287V16.5047C17.1587 16.2449 16.9481 16.0343 16.6884 16.0343C16.4286 16.0343 16.218 16.2449 16.218 16.5047V20.5287C16.218 20.7884 16.4286 20.999 16.6884 20.999Z" fill="white"/>
<path fill-rule="evenodd" clip-rule="evenodd" d="M16.4261 16.5833C16.3074 16.3265 16.3999 16.0216 16.6412 15.8739L19.9268 13.8625C20.2023 13.6939 20.5629 13.7919 20.7151 14.0767C20.8555 14.3393 20.7664 14.6659 20.5122 14.8208L17.2225 16.8256C16.9379 16.9991 16.5658 16.8858 16.4261 16.5833Z" fill="white"/>
<defs>
<linearGradient id="paint0_linear_2393_6540" x1="10.9856" y1="18.2285" x2="10.9856" y2="31.398" gradientUnits="userSpaceOnUse">
<stop stop-color="#23DBFE"/>
<stop offset="1" stop-color="#5736D8"/>
</linearGradient>
<linearGradient id="paint1_linear_2393_6540" x1="15.6507" y1="10.4642" x2="5.95246" y2="5.60416" gradientUnits="userSpaceOnUse">
<stop stop-color="#23DBFE"/>
<stop offset="0.0896761" stop-color="#24D6FD"/>
<stop offset="1" stop-color="#5736D8"/>
</linearGradient>
<linearGradient id="paint2_linear_2393_6540" x1="25.0697" y1="19.1022" x2="32.6791" y2="14.4176" gradientUnits="userSpaceOnUse">
<stop stop-color="#23DBFE"/>
<stop offset="1" stop-color="#5736D8"/>
</linearGradient>
<linearGradient id="paint3_linear_2393_6540" x1="5.30459" y1="14.3587" x2="14.8952" y2="29.5022" gradientUnits="userSpaceOnUse">
<stop stop-color="#20E0FF"/>
<stop offset="1" stop-color="#5C25D4"/>
</linearGradient>
</defs>
</svg>
